<svg width="156" height="60" viewBox="0 0 156 60" fill="none" xmlns="http://www.w3.org/2000/svg">
<path d="M131.861 12.8168C119.245 12.8168 107.721 22.6422 107.721 36.3381C107.721 50.0341 119.245 59.8593 131.861 59.8593C144.576 59.8593 156 50.0341 156 36.3381C156 22.6422 144.576 12.8168 131.861 12.8168ZM131.87 54.33C125.81 54.33 120.536 47.6523 120.536 36.3382C120.536 25.1236 125.803 18.327 131.863 18.327C138.022 18.327 143.285 25.0243 143.285 36.3382C143.285 47.6521 138.029 54.33 131.87 54.33Z" fill="white"/>
<path d="M44.0431 0.436125C44.9715 5.09101 44.9713 9.88369 44.0428 14.5384C43.9827 14.8398 44.2959 15.0762 44.5661 14.9304L58.3706 7.48728L44.5664 0.0442885C44.2962 -0.101601 43.983 0.134657 44.0431 0.436125Z" fill="white"/>
<path d="M63.4763 59.2808H44.5275C44.1445 59.2808 44.0058 58.7649 44.3424 58.5865C46.185 57.5948 47.5986 55.9621 48.2655 54.0116C48.5431 53.3175 48.6951 52.5702 48.6951 51.7968V29.4969C48.6951 27.4211 47.7372 25.451 46.0992 24.1682L43.8255 22.3863C43.6207 22.2258 43.6479 21.9077 43.8768 21.7842L52.2087 17.2924L58.7839 13.7507C59.0241 13.6213 59.3155 13.7955 59.3155 14.0685V51.4596C59.3155 52.3919 59.4806 53.2909 59.7843 54.1238C60.4645 56.0214 61.8515 57.6079 63.6478 58.58C63.9914 58.7649 63.8659 59.2808 63.4763 59.2808Z" fill="white"/>
<path d="M109.988 13.8083L109.01 13.8018H94.5989C94.1958 13.8018 94.0836 14.3438 94.447 14.5159C95.2923 14.9255 96.0253 15.4479 96.6397 16.0495C99.1825 18.542 99.6779 22.4626 97.7759 25.9335L97.7559 25.9732C97.7031 26.0987 97.3266 26.9184 96.752 28.1416C94.9754 31.9364 91.3429 39.6188 89.8106 42.845L81.0527 24.4328C79.5269 20.7368 81.3036 16.4198 84.672 14.5026C85.009 14.3109 84.8768 13.8018 84.4936 13.8018H64.1379C63.8671 13.8018 63.6822 14.0859 63.8009 14.3373L85.0746 59.069C85.1407 59.1949 85.2661 59.2808 85.4116 59.2808H89.0309C89.1696 59.2808 89.2951 59.2014 89.3547 59.0758C90.3916 56.861 91.7983 53.8595 93.4097 50.4214C94.4533 48.1936 95.5828 45.7871 96.7517 43.2882C101.745 32.644 107.458 20.4592 110.325 14.3373C110.443 14.0927 110.259 13.8083 109.988 13.8083Z" fill="white"/>
<path d="M0.0110937 37.1101C-0.058673 34.518 -0.0242952 25.6467 7.34324 18.808C12.3937 14.1198 18.3206 13.2117 20.5494 12.8921C29.1561 11.6583 35.8702 15.3034 38.4472 16.8692C38.7726 17.067 38.9691 17.4211 38.9691 17.8021V29.1164C38.9691 29.4751 38.505 29.6116 38.3068 29.3128C36.1995 26.1338 33.8982 23.8548 31.2654 22.4753C29.2472 21.4178 27.0342 20.889 24.5646 20.889C17.4525 20.889 11.186 25.9356 11.186 34.3165C11.186 43.5083 18.1725 49.5464 27.4454 49.5464C31.9667 49.5464 36.338 47.9686 39.188 44.6755C39.4229 44.4039 39.87 44.601 39.8232 44.9571C38.5242 54.8529 32.0635 60 21.9536 60C8.80993 60 0.382171 50.8931 0.0110937 37.1101Z" fill="white"/>
</svg>
